<svg width="32" height="32" viewBox="0 0 32 32" fill="none" xmlns="http://www.w3.org/2000/svg">
<path d="M30.3333 16.7731C30.3364 16.9178 30.2893 17.0592 30.2 17.1731L23.3733 26.3064C23.3112 26.3902 23.231 26.4589 23.1387 26.5074C23.0463 26.5558 22.9442 26.5829 22.84 26.5864H9.17335C9.06684 26.5849 8.96212 26.5588 8.86732 26.5103C8.77251 26.4617 8.69017 26.392 8.62668 26.3064L1.80001 17.1731C1.71547 17.0569 1.66992 16.9168 1.66992 16.7731C1.66992 16.6294 1.71547 16.4893 1.80001 16.3731L8.62668 7.23976C8.69085 7.15592 8.77365 7.08818 8.86854 7.04189C8.96342 6.99561 9.06778 6.97205 9.17335 6.97309H22.84C22.9433 6.9741 23.0451 6.99864 23.1375 7.04485C23.2299 7.09105 23.3106 7.15771 23.3733 7.23976L30.2 16.3731C30.2874 16.488 30.3343 16.6287 30.3333 16.7731ZM22.5067 25.2531L28.84 16.7731L22.5067 8.30642H9.50668L3.16001 16.7731L9.50668 25.2531H22.5067Z" fill="#95E1D3"/>
<path d="M22.7733 16.7732C22.7764 16.9179 22.7293 17.0593 22.64 17.1732L19.5867 21.2665C19.5239 21.3486 19.4432 21.4152 19.3508 21.4614C19.2584 21.5077 19.1566 21.5322 19.0533 21.5332H12.9467C12.8434 21.5322 12.7416 21.5077 12.6492 21.4614C12.5568 21.4152 12.4761 21.3486 12.4133 21.2665L9.33333 17.1732C9.24245 17.0597 9.19293 16.9186 9.19293 16.7732C9.19293 16.6278 9.24245 16.4867 9.33333 16.3732L12.3867 12.2932C12.4472 12.2088 12.5275 12.1404 12.6204 12.094C12.7133 12.0475 12.8161 12.0244 12.92 12.0265H19.0267C19.1305 12.0244 19.2334 12.0475 19.3263 12.094C19.4192 12.1404 19.4994 12.2088 19.56 12.2932L22.6667 16.3732C22.7446 16.4914 22.7821 16.6318 22.7733 16.7732ZM18.6667 20.1999L21.3333 16.7732L18.6667 13.3332H13.3333L10.6667 16.7732L13.3333 20.1999H18.6667Z" fill="#95E1D3"/>
</svg>
